<svg xmlns="http://www.w3.org/2000/svg" xmlns:xlink="http://www.w3.org/1999/xlink" 
version="1.1" 
width="1000" 
height="1000" 
viewBox="100 175 200 200" xml:space="preserve">
<desc>Created with Fabric.js 3.5.0</desc>
<defs>
</defs>

<g transform="matrix(0.3088 0 0 0.3088 199.8545 274.8909)" id="276081">
<g style="" vector-effect="non-scaling-stroke">
		<g transform="matrix(1 0 0 1 0 0)">
<rect style="stroke: none; stroke-width: 1; stroke-dasharray: none; stroke-linecap: butt; stroke-dashoffset: 0; stroke-linejoin: miter; stroke-miterlimit: 4; is-custom-font: none; font-file-url: none; fill: rgb(200,200,200); fill-rule: nonzero; opacity: 1;" x="-500" y="-375" rx="0" ry="0" width="1000" height="750"/>
</g>
		<g transform="matrix(7.5562 0 0 7.5562 -0.0001 -0.0001)" id="tight-bounds">
<path style="stroke: none; stroke-width: 1; stroke-dasharray: none; stroke-linecap: butt; stroke-dashoffset: 0; stroke-linejoin: miter; stroke-miterlimit: 10; is-custom-font: none; font-file-url: none; fill: rgb(0,0,0); fill-rule: nonzero; opacity: 1;" transform=" translate(-50.45, -49.7625)" d="M 20.6 59.9 l 0.8 1 l -0.4 -1.3 c -0.1 -0.6 -0.8 0.1 -0.4 0.3 M 21.5 59.3 c 0.3 0.5 0.6 1 0.6 1.5 c 0 0.7 0.6 1 1.1 1.2 c -0.7 -0.8 -1.1 -3 -1.7 -2.7 M 59.9 16.9 c 1.7 0 3.3 -0.2 5.1 0.2 c 4.4 1.1 8.1 3.3 10.6 6.4 l 7 11.2 c 0.3 2.8 0.9 5.9 0.8 9.3 c 0.7 0 0.6 -1 1.4 -1.2 c -0.8 2 -1.2 4.5 -1.4 7.4 c -0.5 -1.6 0 -4 0.1 -5.3 c -0.7 1.1 -1.1 0.3 -1.1 -0.2 c 0.1 -0.8 -0.3 -0.7 -0.6 -1 c -1.1 -1 -1.8 -2.1 -2.6 -3.8 c 0.5 -1.3 0.6 -3.2 -1 -4.2 c -0.5 -0.3 -1.1 -0.8 -1.4 -1.6 c -0.4 -1.1 -1.1 -2.4 -0.9 -4.1 c 0.1 -0.5 -1.5 1.1 -2.4 0.4 c -3.9 -2.7 -7.8 -5.8 -12.5 -8.4 c -2.5 0 -4.3 -0.9 -5.2 -2 c -0.8 -1 -0.2 -2.3 1 -2.4 c 0.7 0 1.5 -0.2 2.1 0.2 c 0.1 -0.4 0.5 -0.9 1 -0.9 M 50 14.6 l 0.2 0.1 c 1 0.2 1.5 1.6 2.6 1.1 c 0 0.7 0.1 1.4 -0.1 1.9 c -0.3 0.8 -1.2 0.8 -1.9 0.8 c -6.7 -0.4 -10.6 2.4 -14.7 4.8 c -1.1 0.7 -2.3 1.2 -3.2 2.1 c -4.3 4 -9 7.7 -10.1 15.1 l -0.9 8.2 c -0.1 0.9 -1.1 1.8 -0.9 2.9 l 0.7 4.9 c -0.7 -0.7 -1.1 0.2 -0.9 0.6 c 0.1 0.3 0.5 1.3 1.1 0.4 c 0.8 1.5 1.6 4.4 2.7 5.7 c 3.4 4 7.8 7.6 11.4 11.2 c 0.9 -0.2 1.6 -0.2 1.8 -0.8 c 0.3 0.6 -0.3 1.2 -0.8 1.3 c 1.6 1 3.4 1.9 5.8 2.1 c 3.1 0.2 6 0.7 8.7 1.4 c 1.4 -0.4 2.8 -0.6 4.3 -0.7 c 0.5 0 0.8 -0.8 1.4 -1 l 0.1 -1 c 0.6 0.9 0.5 -0.3 0.1 -0.9 c 0.7 0.6 0.9 1.1 1.2 1.5 c 0 -0.3 0.8 -1.4 0.8 -0.1 l 0.2 -1.3 c 0.3 -0.2 0.4 1.1 0.7 0.2 c 0.3 -0.9 0.9 -0.2 1.5 -0.5 c -0.2 0.4 -0.1 1.2 0.6 0.7 l 0.8 -0.7 c 0.5 1.2 1.3 0.7 1.7 0.5 c 4.4 -2.8 8.8 -6.1 13 -9.4 l -0.1 1.3 l 0.5 -1.6 c 0.5 0.5 0.9 0.1 1.1 -0.2 c 0.6 -1 1.4 -2 2.7 -2.9 c -1.6 4.3 -3.5 7.7 -5.9 10.5 l -1 1.2 c 0 0.7 -0.2 1.6 -1 1.7 c -0.4 0.1 -1.2 -0.2 -1.8 0.4 c -0.3 0.4 0.7 1.2 -0.1 0.6 c -0.7 -0.5 -1.4 0 -2.2 0.2 c -0.6 0.2 0.4 0.8 0.6 1.2 c 0.2 0.4 0.4 0.8 0.3 1.3 l -1.1 -1.2 c -1.3 0.7 -2.1 2 -3.2 3 c -0.5 0.4 -0.3 1.1 -0.3 1.7 c -0.7 0 -1.5 -0.2 -1.9 0.2 c -0.3 0.4 -0.2 1 -0.2 1.6 c -1 -0.1 -1.1 -1.6 -2 -1.3 c -0.9 0.2 -1.9 0.3 -2.7 0.8 c 0.6 1.2 -1 0.5 -0.8 0.7 c -1.5 -0.9 -2.8 -1.6 -4.4 -1 c -3.4 -1.1 -7.6 -0.6 -10.7 -0.2 c 0 -0.5 0.1 -1 -0.1 -1.1 c -0.2 0.5 -0.8 0.3 -0.7 0.3 c -1.9 -1.3 -3.8 -2.1 -5.8 -3.2 c -1.8 0.2 -3.5 -0.7 -4 -1.2 c -1.4 -1.3 -3 -0.6 -4.3 -0.9 c -2.8 -0.7 -3.8 -3.6 -4.1 -5.6 c -0.2 -1 -1 -1.4 -1.3 -1.3 c -1.3 -4.2 -3.3 -8 -4.9 -11.9 c -0.4 -1 -0.3 -2 -0.3 -3.1 c 0.5 0.2 1 0.1 0.9 -0.6 c -0.5 -3.3 -1.7 -5.8 -3 -8.2 c 0.7 -3.4 0.8 -7.4 2.4 -10.4 c 1.4 -2.7 4 -4.1 5.8 -6.4 c 0.6 -0.8 0.6 -1.9 1.2 -2.6 c 2 -2 4 -4.1 6.2 -5.9 c 1 -0.8 2.2 0 3.7 -0.3 c 0.5 -1.8 2.5 -3.4 4.4 -2.9 c 0.8 0.2 2.4 -1.9 2.9 -2.1 c 0.8 -0.3 0.4 0.8 0.4 1.5 c 1.9 -1.5 4.5 -2.3 6.9 -3.2" stroke-linecap="round"/>
</g>
		<g transform="matrix(2.8238 0 0 2.8238 -0.001 81.4742)" id="text-0">
<path style="stroke: none; stroke-width: 1; stroke-dasharray: none; stroke-linecap: butt; stroke-dashoffset: 0; stroke-linejoin: miter; stroke-miterlimit: 4; is-custom-font: none; font-file-url: none; fill: rgb(0,0,0); fill-rule: nonzero; opacity: 1;" transform=" translate(-24.275, 10.55)" d="M 34.95 -1.2 L 34.95 0 L 21.45 0 L 21.45 -1.05 L 25.35 -1.65 L 20.95 -13.15 L 9.7 -13.15 L 5.5 -2.5 L 9.95 -1.2 L 9.95 0 L -0.5 0 L -0.5 -1.2 L 3.3 -2.5 L 15.6 -33.4 L 18.05 -33.4 L 31.1 -1.65 L 34.95 -1.2 Z M 10.4 -15 L 20.2 -15 L 15.3 -27.15 L 10.4 -15 Z M 39.55 0.15 L 39.55 0.15 L 39.55 -31.75 L 35.2 -32.2 L 35.2 -33.4 L 49.05 -33.4 L 49.05 -32.2 L 44.7 -31.75 L 44.7 -2.65 Q 44.7 8.3 38.65 11.2 L 38.65 11.2 Q 36.3 12.3 33.25 12.3 Q 30.2 12.3 28.2 11.25 Q 26.2 10.2 26.2 7.7 L 26.2 7.7 Q 26.2 6.65 27.12 5.88 Q 28.05 5.1 29.1 5.1 Q 30.15 5.1 30.8 5.3 L 30.8 5.3 Q 30.5 6.35 30.5 7.25 L 30.5 7.25 Q 30.5 10.6 33.7 10.6 L 33.7 10.6 Q 39.55 10.6 39.55 0.15 Z" stroke-linecap="round"/>
</g>
		<g transform="matrix(2.402 0 0 2.402 0.0004 -37.9105)" id="icon-0">
<path style="stroke: none; stroke-width: 1; stroke-dasharray: none; stroke-linecap: butt; stroke-dashoffset: 0; stroke-linejoin: miter; stroke-miterlimit: 4; is-custom-font: none; font-file-url: none; fill: rgb(0,0,0); fill-rule: nonzero; opacity: 1;" transform=" translate(-32, -47)" d="M 45 36 h -3 v -4 H 14 v 25 c 0 2.8 2.2 5 5 5 h 18 c 2.8 0 5 -2.2 5 -5 v -3 h 3 c 2.8 0 5 -2.2 5 -5 v -8 C 50 38.2 47.8 36 45 36 z M 23.9 54.5 l -1.7 1 L 17.8 48 l 4.3 -7.5 l 1.7 1 L 20.2 48 L 23.9 54.5 z M 27 55.3 L 25 54.7 l 4 -14 l 1.9 0.5 L 27 55.3 z M 33.9 55.5 l -1.7 -1 l 3.7 -6.5 l -3.7 -6.5 l 1.7 -1 l 4.3 7.5 L 33.9 55.5 z M 48 49 c 0 1.7 -1.3 3 -3 3 h -3 V 38 h 3 c 1.7 0 3 1.3 3 3 V 49 z" stroke-linecap="round"/>
</g>
		<g transform="matrix(2.402 0 0 2.402 -12.0096 -112.372)" id="icon-0">
<path style="stroke: none; stroke-width: 1; stroke-dasharray: none; stroke-linecap: butt; stroke-dashoffset: 0; stroke-linejoin: miter; stroke-miterlimit: 4; is-custom-font: none; font-file-url: none; fill: rgb(0,0,0); fill-rule: nonzero; opacity: 1;" transform=" translate(-27, -16)" d="M 38 30 h -2 v -2 c 0 -1.1 -0.9 -2 -2 -2 H 20 c -2.2 0 -4 -1.8 -4 -4 s 1.8 -4 4 -4 h 14 c 1.1 0 2 -0.9 2 -2 s -0.9 -2 -2 -2 H 20 c -2.2 0 -4 -1.8 -4 -4 s 1.8 -4 4 -4 h 14 c 1.1 0 2 -0.9 2 -2 V 2 h 2 v 2 c 0 2.2 -1.8 4 -4 4 H 20 c -1.1 0 -2 0.9 -2 2 s 0.9 2 2 2 h 14 c 2.2 0 4 1.8 4 4 s -1.8 4 -4 4 H 20 c -1.1 0 -2 0.9 -2 2 s 0.9 2 2 2 h 14 c 2.2 0 4 1.8 4 4 V 30 z" stroke-linecap="round"/>
</g>
		<g transform="matrix(1.6222 0 0 1.6222 -0.0035 -0.004)" id="tight-bounds">
<rect style="stroke: none; stroke-width: 1; stroke-dasharray: none; stroke-linecap: butt; stroke-dashoffset: 0; stroke-linejoin: miter; stroke-miterlimit: 4; is-custom-font: none; font-file-url: none; fill: none; fill-rule: nonzero; opacity: 1;" x="-160" y="-180" rx="0" ry="0" width="320" height="360"/>
</g>
</g>
</g>
</svg>